{
.appVersion = "3151";
.formatVersion = 3;
DisplayStrings = (
t
);
customParameters = (
{
name = vendorID;
value = COMM;
},
{
name = panose;
value = (
2,
13,
5,
4,
3,
5,
2,
5,
2,
3
);
},
{
name = unicodeRanges;
value = (
0,
1,
2
);
},
{
name = codePageRanges;
value = (
"1252",
"1250",
"1254",
"1257",
"bit 29"
);
},
{
name = fsType;
value = (
2
);
},
{
name = glyphOrder;
value = (
.notdef,
Eth,
eth,
Lslash,
lslash,
Scaron,
scaron,
Yacute,
yacute,
Thorn,
thorn,
Zcaron,
zcaron,
onehalf,
onequarter,
onesuperior,
threequarters,
threesuperior,
twosuperior,
brokenbar,
minus,
multiply,
space,
exclam,
quotedbl,
numbersign,
dollar,
percent,
ampersand,
quotesingle,
parenleft,
parenright,
asterisk,
plus,
comma,
hyphen,
period,
slash,
zero,
one,
two,
three,
four,
five,
six,
seven,
eight,
nine,
colon,
semicolon,
less,
equal,
greater,
question,
at,
A,
B,
C,
D,
E,
F,
G,
H,
I,
J,
K,
L,
M,
N,
O,
P,
Q,
R,
S,
T,
U,
V,
W,
X,
Y,
Z,
bracketleft,
backslash,
bracketright,
asciicircum,
underscore,
grave,
a,
b,
c,
d,
e,
f,
g,
h,
i,
j,
k,
l,
m,
n,
o,
p,
q,
r,
s,
t,
u,
v,
w,
x,
y,
z,
braceleft,
bar,
braceright,
asciitilde,
Adieresis,
Aring,
Ccedilla,
Eacute,
Ntilde,
Odieresis,
Udieresis,
aacute,
agrave,
acircumflex,
adieresis,
atilde,
aring,
ccedilla,
eacute,
egrave,
ecircumflex,
edieresis,
iacute,
igrave,
icircumflex,
idieresis,
ntilde,
oacute,
ograve,
ocircumflex,
odieresis,
otilde,
uacute,
ugrave,
ucircumflex,
udieresis,
dagger,
degree,
cent,
sterling,
section,
bullet,
paragraph,
germandbls,
registered,
copyright,
trademark,
acute,
dieresis,
notequal,
AE,
Oslash,
infinity,
plusminus,
lessequal,
greaterequal,
yen,
mu,
partialdiff,
summation,
product,
pi,
integral,
ordfeminine,
ordmasculine,
Omega,
ae,
oslash,
questiondown,
exclamdown,
logicalnot,
radical,
florin,
approxequal,
Delta,
guillemotleft,
guillemotright,
ellipsis,
uni00A0,
Agrave,
Atilde,
Otilde,
OE,
oe,
endash,
emdash,
quotedblleft,
quotedblright,
quoteleft,
quoteright,
divide,
lozenge,
ydieresis,
Ydieresis,
fraction,
Euro,

glyphs = (
{
glyphname = zero;
kernLeft = zero;
kernRight = zero;
lastChange = "2023-04-04 19:32:22 +0000";
layers = (
{
hints = (
{
horizontal = 1;
place = (-15, 73);
place = (-15, 73);
type = Stem;
},
{
horizontal = 1;
place = (629, 72);
place = (629, 72);
type = Stem;
},
{
place = (44, 87);
place = (44, 87);
type = Stem;
},
{
place = (489, 87);
place = (489, 87);
type = Stem;
}
);
layerId = m01;
shapes = (
{
closed = 1;
nodes = (
(149,701,o),
(44,565,o),
(44,343,cs),
(44,125,o),
(141,-15,o),
(310,-15,cs),
(481,-15,o),
(576,125,o),
(576,343,cs),
(576,567,o),
(473,701,o),
(311,701,cs)
);
},
{
closed = 1;
nodes = (
(430,629,o),
(489,517,o),
(489,343,cs),
(489,166,o),
(433,58,o),
(311,58,cs),
(190,58,o),
(131,169,o),
(131,343,cs),
(131,520,o),
(190,629,o),
(311,629,cs)
);
}
);
width = 620;
}
);
note = zero;
unicode = 48;
},
{
glyphname = one;
kernLeft = one;
lastChange = "2023-04-03 23:38:50 +0000";
layers = (
{
hints = (
{
horizontal = 1;
place = (0, 21);
target = up;
type = BottomGhost;
},
{
horizontal = 1;
place = (499, 56);
place = (499, 56);
type = Stem;
},
{
horizontal = 1;
place = (689, -20);
target = down;
type = TopGhost;
},
{
place = (184, 84);
place = (184, 84);
type = Stem;
}
);
layerId = m01;
shapes = (
{
closed = 1;
nodes = (
(190,588,o),
(118,557,o),
(34,555,c),
(34,499,l),
(84,499,o),
(134,499,o),
(184,499,c),
(184,0,l),
(268,0,l),
(268,689,l),
(203,689,l)
);
}
);
width = 346;
}
);
note = one;
unicode = 49;
},
{
glyphname = two;
kernLeft = two;
kernRight = two;
lastChange = "2023-04-03 23:41:00 +0000";
layers = (
{
hints = (
{
horizontal = 1;
place = (0, 80);
place = (0, 80);
type = Stem;
},
{
horizontal = 1;
place = (630, 70);
place = (630, 70);
type = Stem;
},
{
place = (48, 88);
place = (48, 88);
type = Stem;
},
{
place = (433, 87);
place = (433, 87);
type = Stem;
}
);
layerId = m01;
shapes = (
{
closed = 1;
nodes = (
(136,450,l),
(136,561,o),
(178,630,o),
(284,630,cs),
(375,630,o),
(433,573,o),
(433,489,cs),
(433,406,o),
(378,371,o),
(288,319,cs),
(168,250,o),
(39,183,o),
(31,0,c),
(506,0,l),
(506,80,l),
(132,80,l),
(151,156,o),
(246,212,o),
(320,253,cs),
(430,314,o),
(520,358,o),
(520,490,cs),
(520,612,o),
(430,700,o),
(291,700,cs),
(138,700,o),
(48,611,o),
(48,450,c)
);
}
);
width = 556;
}
);
note = two;
unicode = 50;
},
{
glyphname = three;
kernLeft = three;
kernRight = three;
lastChange = "2023-04-03 23:52:25 +0000";
layers = (
{
hints = (
{
horizontal = 1;
place = (-15, 70);
place = (-15, 70);
type = Stem;
},
{
horizontal = 1;
place = (332, 65);
place = (332, 65);
type = Stem;
},
{
horizontal = 1;
place = (635, 66);
place = (635, 66);
type = Stem;
},
{
place = (41, 82);
place = (41, 82);
type = Stem;
},
{
place = (450, 87);
place = (450, 87);
type = Stem;
},
{
place = (430, 82);
place = (430, 82);
type = Stem;
}
);
layerId = m01;
shapes = (
{
closed = 1;
nodes = (
(123,476,l),
(123,571,o),
(182,635,o),
(281,635,cs),
(363,635,o),
(430,590,o),
(430,515,cs),
(430,442,o),
(376,397,o),
(269,397,cs),
(227,397,l),
(227,332,l),
(270,332,ls),
(385,332,o),
(450,286,o),
(450,199,cs),
(450,102,o),
(383,55,o),
(288,55,cs),
(175,55,o),
(104,116,o),
(101,226,c),
(18,226,l),
(21,70,o),
(140,-15,o),
(291,-15,cs),
(430,-15,o),
(537,60,o),
(537,191,cs),
(537,280,o),
(495,341,o),
(399,366,c),
(399,369,l),
(465,391,o),
(512,436,o),
(512,513,cs),
(512,632,o),
(411,701,o),
(284,701,cs),
(133,701,o),
(42,611,o),
(41,476,c)
);
}
);
width = 569;
}
);
note = three;
unicode = 51;
},
{
glyphname = four;
kernLeft = four;
kernRight = four;
lastChange = "2023-04-04 01:08:02 +0000";
layers = (
{
hints = (
{
horizontal = 1;
place = (0, 21);
target = up;
type = BottomGhost;
},
{
horizontal = 1;
place = (168, 67);
place = (168, 67);
type = Stem;
},
{
horizontal = 1;
place = (692, -20);
target = down;
type = TopGhost;
},
{
place = (26, 81);
place = (26, 81);
type = Stem;
},
{
place = (349, 82);
place = (349, 82);
type = Stem;
}
);
layerId = m01;
shapes = (
{
closed = 1;
nodes = (
(26,168,l),
(349,168,l),
(349,0,l),
(431,0,l),
(431,168,l),
(544,168,l),
(544,235,l),
(431,235,l),
(431,692,l),
(365,692,l),
(26,243,l)
);
},
{
closed = 1;
nodes = (
(349,556,l),
(349,235,l),
(107,235,l)
);
}
);
width = 566;
}
);
note = four;
unicode = 52;
},
{
glyphname = five;
kernLeft = five;
kernRight = five;
lastChange = "2023-04-04 01:35:59 +0000";
layers = (
{
hints = (
{
horizontal = 1;
place = (-15, 74);
place = (-15, 74);
type = Stem;
},
{
horizontal = 1;
place = (388, 74);
place = (388, 74);
type = Stem;
},
{
horizontal = 1;
place = (610, 75);
place = (610, 75);
type = Stem;
},
{
place = (435, 86);
place = (435, 86);
type = Stem;
},
{
horizontal = 1;
place = (317, 87);
place = (317, 87);
type = Stem;
}
);
layerId = m01;
shapes = (
{
closed = 1;
nodes = (
(115,685,l),
(39,317,l),
(120,317,l),
(149,358,o),
(200,388,o),
(274,388,cs),
(364,388,o),
(435,328,o),
(435,225,cs),
(435,125,o),
(372,59,o),
(274,59,cs),
(177,59,o),
(117,113,o),
(106,198,c),
(23,198,l),
(29,71,o),
(133,-15,o),
(275,-15,cs),
(417,-15,o),
(521,77,o),
(521,223,cs),
(521,375,o),
(410,462,o),
(288,462,cs),
(222,462,o),
(170,441,o),
(131,404,c),
(129,404,l),
(174,610,l),
(480,610,l),
(480,685,l)
);
}
);
width = 553;
}
);
note = five;
unicode = 53;
},
{
glyphname = six;
kernLeft = six;
kernRight = six;
lastChange = "2023-04-04 01:39:26 +0000";
layers = (
{
hints = (
{
horizontal = 1;
place = (-15, 68);
place = (-15, 68);
type = Stem;
},
{
horizontal = 1;
place = (380, 69);
place = (380, 69);
type = Stem;
},
{
horizontal = 1;
place = (630, 71);
place = (630, 71);
type = Stem;
},
{
place = (44, 82);
place = (44, 82);
type = Stem;
},
{
place = (464, 78);
place = (464, 78);
type = Stem;
}
);
layerId = m01;
shapes = (
{
closed = 1;
nodes = (
(514,610,o),
(446,701,o),
(309,701,cs),
(135,701,o),
(44,560,o),
(44,347,cs),
(44,141,o),
(114,-15,o),
(312,-15,cs),
(440,-15,o),
(543,91,o),
(542,219,cs),
(541,345,o),
(442,449,o),
(316,449,cs),
(234,449,o),
(172,415,o),
(128,354,c),
(126,354,l),
(129,522,o),
(177,630,o),
(311,630,cs),
(390,630,o),
(436,576,o),
(442,511,c),
(525,511,l)
);
},
{
closed = 1;
nodes = (
(396,380,o),
(464,313,o),
(464,216,cs),
(464,119,o),
(399,53,o),
(310,53,cs),
(214,53,o),
(141,120,o),
(141,217,cs),
(141,315,o),
(209,380,o),
(307,380,cs)
);
}
);
width = 581;
}
);
note = six;
unicode = 54;
},
{
glyphname = seven;
kernLeft = seven;
kernRight = seven;
lastChange = "2023-04-04 01:43:32 +0000";
layers = (
{
hints = (
{
horizontal = 1;
place = (0, 21);
target = up;
type = BottomGhost;
},
{
horizontal = 1;
place = (610, 75);
place = (610, 75);
type = Stem;
},
{
place = (120, 90);
place = (120, 90);
type = Stem;
}
);
layerId = m01;
shapes = (
{
closed = 1;
nodes = (
(23,610,l),
(414,610,l),
(260,484,o),
(135,239,o),
(120,0,c),
(210,0,l),
(224,272,o),
(362,493,o),
(502,616,c),
(502,685,l),
(23,685,l)
);
}
);
width = 513;
}
);
note = seven;
unicode = 55;
},
{
glyphname = eight;
kernLeft = eight;
kernRight = eight;
lastChange = "2023-04-04 18:15:33 +0000";
layers = (
{
hints = (
{
horizontal = 1;
place = (-15, 70);
place = (-15, 70);
type = Stem;
},
{
horizontal = 1;
place = (342, 66);
place = (342, 66);
type = Stem;
},
{
horizontal = 1;
place = (632, 70);
place = (632, 70);
type = Stem;
},
{
place = (33, 86);
place = (33, 86);
type = Stem;
},
{
place = (467, 84);
place = (467, 84);
type = Stem;
},
{
place = (67, 82);
place = (67, 82);
type = Stem;
},
{
place = (435, 82);
place = (435, 82);
type = Stem;
}
);
layerId = m01;
shapes = (
{
closed = 1;
nodes = (
(166,702,o),
(67,632,o),
(67,523,cs),
(67,452,o),
(110,401,o),
(174,377,c),
(174,374,l),
(97,349,o),
(33,295,o),
(33,196,cs),
(33,41,o),
(169,-15,o),
(295,-15,cs),
(421,-15,o),
(551,40,o),
(551,196,cs),
(551,289,o),
(489,351,o),
(412,374,c),
(412,377,l),
(476,402,o),
(517,452,o),
(517,523,cs),
(517,633,o),
(418,702,o),
(292,702,cs)
);
},
{
closed = 1;
nodes = (
(402,342,o),
(467,286,o),
(467,196,cs),
(467,108,o),
(402,55,o),
(295,55,cs),
(185,55,o),
(119,107,o),
(119,196,cs),
(119,286,o),
(184,342,o),
(292,342,cs)
);
},
{
closed = 1;
nodes = (
(380,632,o),
(435,590,o),
(435,520,cs),
(435,450,o),
(380,408,o),
(292,408,cs),
(204,408,o),
(149,450,o),
(149,520,cs),
(149,590,o),
(204,632,o),
(292,632,cs)
);
}
);
width = 584;
}
);
note = eight;
unicode = 56;
},
{
glyphname = nine;
kernLeft = nine;
kernRight = nine;
lastChange = "2023-04-04 02:04:36 +0000";
layers = (
{
hints = (
{
horizontal = 1;
place = (-15, 71);
place = (-15, 71);
type = Stem;
},
{
horizontal = 1;
place = (237, 69);
place = (237, 69);
type = Stem;
},
{
horizontal = 1;
place = (633, 68);
place = (633, 68);
type = Stem;
},
{
place = (40, 78);
place = (40, 78);
type = Stem;
},
{
place = (459, 82);
place = (459, 82);
type = Stem;
}
);
layerId = m01;
shapes = (
{
closed = 1;
nodes = (
(350,237,o),
(413,269,o),
(459,324,c),
(453,182,o),
(427,56,o),
(282,56,cs),
(190,56,o),
(138,111,o),
(132,186,c),
(47,186,l),
(53,65,o),
(149,-15,o),
(284,-15,cs),
(478,-15,o),
(541,141,o),
(541,339,cs),
(541,549,o),
(472,701,o),
(280,701,cs),
(141,701,o),
(39,595,o),
(40,467,cs),
(41,341,o),
(142,237,o),
(268,237,cs)
);
},
{
closed = 1;
nodes = (
(190,306,o),
(118,373,o),
(118,470,cs),
(118,567,o),
(185,633,o),
(280,633,cs),
(372,633,o),
(447,567,o),
(447,470,cs),
(447,373,o),
(382,306,o),
(279,306,cs)
);
}
);
width = 581;
}
);
note = nine;
unicode = 57;
},
{
glyphname = A;
kernLeft = A;
kernRight = A;
lastChange = "2023-04-04 19:49:49 +0000";
layers = (
{
hints = (
{
horizontal = 1;
place = (0, 21);
target = up;
type = BottomGhost;
},
{
horizontal = 1;
place = (218, 73);
place = (218, 73);
type = Stem;
},
{
horizontal = 1;
place = (715, -20);
target = down;
type = TopGhost;
},
{
place = (10, 628);
place = (10, 628);
type = Stem;
},
{
horizontal = 1;
place = (632, 83);
place = (632, 83);
type = Stem;
}
);
layerId = m01;
shapes = (
{
closed = 1;
nodes = (
(10,0,l),
(102,0,l),
(179,218,l),
(464,218,l),
(540,0,l),
(638,0,l),
(374,715,l),
(273,715,l)
);
},
{
closed = 1;
nodes = (
(439,291,l),
(205,291,l),
(324,632,l)
);
}
);
width = 648;
}
);
note = A;
unicode = 65;
},
{
glyphname = B;
lastChange = "2023-04-04 19:49:52 +0000";
layers = (
{
hints = (
{
horizontal = 1;
place = (0, 81);
place = (0, 81);
type = Stem;
},
{
horizontal = 1;
place = (333, 76);
place = (333, 76);
type = Stem;
},
{
horizontal = 1;
place = (637, 78);
place = (637, 78);
type = Stem;
},
{
place = (67, 90);
place = (67, 90);
type = Stem;
},
{
place = (498, 90);
place = (498, 90);
type = Stem;
},
{
place = (526, 91);
place = (526, 91);
type = Stem;
}
);
layerId = m01;
shapes = (
{
closed = 1;
nodes = (
(67,0,l),
(386,0,ls),
(515,0,o),
(617,76,o),
(617,205,cs),
(617,301,o),
(554,359,o),
(473,380,c),
(544,403,o),
(588,452,o),
(588,531,cs),
(588,652,o),
(494,715,o),
(370,715,cs),
(67,715,l)
);
},
{
closed = 1;
nodes = (
(371,637,ls),
(451,637,o),
(498,595,o),
(498,526,cs),
(498,452,o),
(446,409,o),
(359,409,cs),
(157,409,l),
(157,637,l)
);
},
{
closed = 1;
nodes = (
(376,333,ls),
(463,333,o),
(526,289,o),
(526,200,cs),
(526,120,o),
(467,81,o),
(382,81,cs),
(157,81,l),
(157,333,l)
);
}
);
width = 644;
}
);
note = B;
unicode = 66;
},
{
glyphname = C;
kernLeft = C;
kernRight = C;
lastChange = "2023-04-04 02:17:24 +0000";
layers = (
{
hints = (
{
horizontal = 1;
place = (-14, 79);
place = (-14, 79);
type = Stem;
},
{
horizontal = 1;
place = (653, 78);
place = (653, 78);
type = Stem;
},
{
place = (40, 92);
place = (40, 92);
type = Stem;
}
);
layerId = m01;
shapes = (
{
closed = 1;
nodes = (
(647,635,o),
(546,731,o),
(379,731,cs),
(166,731,o),
(40,568,o),
(40,358,cs),
(40,141,o),
(172,-14,o),
(375,-14,cs),
(607,-14,o),
(674,161,o),
(675,262,c),
(586,262,l),
(577,157,o),
(513,65,o),
(378,65,cs),
(229,65,o),
(132,183,o),
(132,358,cs),
(132,526,o),
(220,653,o),
(377,653,cs),
(490,653,o),
(561,592,o),
(578,503,c),
(666,503,l)
);
}
);
width = 709;
}
);
note = C;
unicode = 67;
},
{
glyphname = D;
kernRight = Eth;
lastChange = "2023-04-04 19:49:57 +0000";
layers = (
{
hints = (
{
horizontal = 1;
place = (0, 79);
place = (0, 79);
type = Stem;
},
{
horizontal = 1;
place = (637, 78);
place = (637, 78);
type = Stem;
},
{
place = (67, 90);
place = (67, 90);
type = Stem;
},
{
place = (552, 92);
place = (552, 92);
type = Stem;
}
);
layerId = m01;
shapes = (
{
closed = 1;
nodes = (
(67,0,l),
(320,0,ls),
(535,0,o),
(644,141,o),
(644,355,cs),
(644,569,o),
(542,715,o),
(327,715,cs),
(67,715,l)
);
},
{
closed = 1;
nodes = (
(324,637,ls),
(492,637,o),
(552,523,o),
(552,355,cs),
(552,187,o),
(485,79,o),
(317,79,cs),
(157,79,l),
(157,637,l)
);
}
);
width = 684;
}
);
note = D;
unicode = 68;
},
{
glyphname = E;
kernRight = E;
layers = (
{
hints = (
{
horizontal = 1;
place = (0, 83);
place = (0, 83);
type = Stem;
},
{
horizontal = 1;
place = (334, 76);
place = (334, 76);
type = Stem;
},
{
horizontal = 1;
place = (636, 79);
place = (636, 79);
type = Stem;
},
{
place = (67, 90);
place = (67, 90);
type = Stem;
}
);
layerId = m01;
shapes = (
{
closed = 1;
nodes = (
(67,0,l),
(584,0,l),
(584,83,l),
(157,83,l),
(157,334,l),
(534,334,l),
(534,410,l),
(157,410,l),
(157,636,l),
(572,636,l),
(572,715,l),
(67,715,l)
);
}
);
width = 622;
}
);
note = E;
unicode = 69;
},
{
glyphname = F;
kernRight = F;
layers = (
{
hints = (
{
horizontal = 1;
place = (0, 21);
target = up;
type = BottomGhost;
},
{
horizontal = 1;
place = (337, 76);
place = (337, 76);
type = Stem;
},
{
horizontal = 1;
place = (636, 79);
place = (636, 79);
type = Stem;
},
{
place = (67, 90);
place = (67, 90);
type = Stem;
}
);
layerId = m01;
shapes = (
{
closed = 1;
nodes = (
(67,0,l),
(157,0,l),
(157,337,l),
(486,337,l),
(486,413,l),
(157,413,l),
(157,636,l),
(552,636,l),
(552,715,l),
(67,715,l)
);
}
);
width = 578;
}
);
note = F;
unicode = 70;
},
{
glyphname = G;
kernLeft = C;
kernRight = G;
lastChange = "2023-04-04 02:26:42 +0000";
layers = (
{
hints = (
{
horizontal = 1;
place = (0, 21);
target = up;
type = BottomGhost;
},
{
horizontal = 1;
place = (300, 78);
place = (300, 78);
type = Stem;
},
{
horizontal = 1;
place = (652, 78);
place = (652, 78);
type = Stem;
},
{
place = (40, 92);
place = (40, 92);
type = Stem;
},
{
place = (595, 90);
place = (595, 90);
type = Stem;
},
{
horizontal = 1;
place = (-15, 78);
place = (-15, 78);
type = Stem;
}
);
layerId = m01;
shapes = (
{
closed = 1;
nodes = (
(652,640,o),
(550,730,o),
(384,730,cs),
(159,730,o),
(40,565,o),
(40,355,cs),
(40,138,o),
(175,-15,o),
(376,-15,cs),
(470,-15,o),
(547,21,o),
(601,94,c),
(627,0,l),
(685,0,l),
(685,378,l),
(380,378,l),
(380,300,l),
(595,300,l),
(595,283,ls),
(595,163,o),
(526,63,o),
(379,63,cs),
(234,63,o),
(132,180,o),
(132,355,cs),
(132,523,o),
(210,652,o),
(382,652,cs),
(495,652,o),
(562,595,o),
(582,500,c),
(675,500,l)
);
}
);
width = 742;
}
);
note = G;
unicode = 71;
},
{
glyphname = H;
layers = (
{
hints = (
{
horizontal = 1;
place = (0, 21);
target = up;
type = BottomGhost;
},
{
horizontal = 1;
place = (338, 73);
place = (338, 73);
type = Stem;
},
{
horizontal = 1;
place = (715, -20);
target = down;
type = TopGhost;
},
{
place = (67, 90);
place = (67, 90);
type = Stem;
},
{
place = (539, 90);
place = (539, 90);
type = Stem;
}
);
layerId = m01;
shapes = (
{
closed = 1;
nodes = (
(67,0,l),
(157,0,l),
(157,338,l),
(539,338,l),
(539,0,l),
(629,0,l),
(629,715,l),
(539,715,l),
(539,411,l),
(157,411,l),
(157,715,l),
(67,715,l)
);
}
);
width = 696;
}
);
note = H;
unicode = 72;
},
{
glyphname = I;
layers = (
{
hints = (
{
horizontal = 1;
place = (0, 21);
target = up;
type = BottomGhost;
},
{
horizontal = 1;
place = (715, -20);
target = down;
type = TopGhost;
},
{
place = (69, 90);
place = (69, 90);
type = Stem;
}
);
layerId = m01;
shapes = (
{
closed = 1;
nodes = (
(69,0,l),
(159,0,l),
(159,715,l),
(69,715,l)
);
}
);
width = 228;
}
);
note = I;
unicode = 73;
},
{
glyphname = J;
kernLeft = J;
kernRight = J;
lastChange = "2023-04-04 02:31:14 +0000";
layers = (
{
hints = (
{
horizontal = 1;
place = (-14, 74);
place = (-14, 74);
type = Stem;
},
{
horizontal = 1;
place = (715, -20);
target = down;
type = TopGhost;
},
{
place = (22, 89);
place = (22, 89);
type = Stem;
},
{
place = (349, 90);
place = (349, 90);
type = Stem;
}
);
layerId = m01;
shapes = (
{
closed = 1;
nodes = (
(349,187,ls),
(349,97,o),
(307,60,o),
(235,60,cs),
(151,60,o),
(111,98,o),
(111,225,cs),
(111,232,l),
(22,232,l),
(22,222,ls),
(22,56,o),
(103,-14,o),
(232,-14,cs),
(370,-14,o),
(439,67,o),
(439,181,cs),
(439,715,l),
(349,715,l)
);
}
);
width = 497;
}
);
note = J;
unicode = 74;
},
{
glyphname = K;
kernRight = K;
layers = (
{
hints = (
{
horizontal = 1;
place = (0, 21);
target = up;
type = BottomGhost;
},
{
horizontal = 1;
place = (715, -20);
target = down;
type = TopGhost;
},
{
place = (67, 90);
place = (67, 90);
type = Stem;
}
);
layerId = m01;
shapes = (
{
closed = 1;
nodes = (
(67,0,l),
(157,0,l),
(157,253,l),
(272,368,l),
(541,0,l),
(646,0,l),
(333,429,l),
(622,715,l),
(509,715,l),
(157,360,l),
(157,715,l),
(67,715,l)
);
}
);
width = 644;
}
);
note = K;
unicode = 75;
},
{
glyphname = L;
kernRight = L;
layers = (
{
hints = (
{
horizontal = 1;
place = (0, 83);
place = (0, 83);
type = Stem;
},
{
horizontal = 1;
place = (715, -20);
target = down;
type = TopGhost;
},
{
place = (67, 90);
place = (67, 90);
type = Stem;
}
);
layerId = m01;
shapes = (
{
closed = 1;
nodes = (
(67,0,l),
(532,0,l),
(532,83,l),
(157,83,l),
(157,715,l),
(67,715,l)
);
}
);
width = 554;
}
);
note = L;
unicode = 76;
},
{
glyphname = M;
lastChange = "2023-04-04 02:44:57 +0000";
layers = (
{
hints = (
{
horizontal = 1;
place = (0, 21);
target = up;
type = BottomGhost;
},
{
horizontal = 1;
place = (588, 127);
place = (588, 127);
type = Stem;
},
{
place = (67, 81);
place = (67, 81);
type = Stem;
},
{
place = (677, 86);
place = (677, 86);
type = Stem;
}
);
layerId = m01;
shapes = (
{
closed = 1;
nodes = (
(67,0,l),
(148,0,l),
(148,588,l),
(150,588,l),
(378,0,l),
(447,0,l),
(675,588,l),
(677,588,l),
(677,0,l),
(763,0,l),
(763,715,l),
(646,715,l),
(416,121,l),
(414,121,l),
(182,715,l),
(67,715,l)
);
}
);
width = 830;
}
);
note = M;
unicode = 77;
},
{
glyphname = N;
lastChange = "2023-04-04 02:46:40 +0000";
layers = (
{
hints = (
{
horizontal = 1;
place = (0, 21);
target = up;
type = BottomGhost;
},
{
horizontal = 1;
place = (715, -20);
target = down;
type = TopGhost;
},
{
place = (67, 84);
place = (67, 84);
type = Stem;
},
{
place = (542, 84);
place = (542, 84);
type = Stem;
},
{
horizontal = 1;
place = (587, 128);
place = (587, 128);
type = Stem;
},
{
horizontal = 1;
place = (0, 126);
place = (0, 126);
type = Stem;
}
);
layerId = m01;
shapes = (
{
closed = 1;
nodes = (
(67,0,l),
(151,0,l),
(151,587,l),
(153,587,l),
(534,0,l),
(626,0,l),
(626,715,l),
(542,715,l),
(542,126,l),
(540,126,l),
(162,715,l),
(67,715,l)
);
}
);
width = 693;
}
);
note = N;
unicode = 78;
},
{
glyphname = O;
kernLeft = C;
kernRight = O;
lastChange = "2023-04-04 19:50:01 +0000";
layers = (
{
hints = (
{
horizontal = 1;
place = (-15, 79);
place = (-15, 79);
type = Stem;
},
{
horizontal = 1;
place = (653, 78);
place = (653, 78);
type = Stem;
},
{
place = (40, 92);
place = (40, 92);
type = Stem;
},
{
place = (648, 92);
place = (648, 92);
type = Stem;
}
);
layerId = m01;
shapes = (
{
closed = 1;
nodes = (
(174,731,o),
(40,572,o),
(40,358,cs),
(40,144,o),
(174,-15,o),
(390,-15,cs),
(606,-15,o),
(740,144,o),
(740,358,cs),
(740,572,o),
(606,731,o),
(390,731,cs)
);
},
{
closed = 1;
nodes = (
(558,653,o),
(648,526,o),
(648,358,cs),
(648,190,o),
(558,64,o),
(390,64,cs),
(222,64,o),
(132,190,o),
(132,358,cs),
(132,526,o),
(222,653,o),
(390,653,cs)
);
}
);
width = 780;
}
);
note = O;
unicode = 79;
},
{
glyphname = P;
kernRight = P;
lastChange = "2023-04-04 19:50:03 +0000";
layers = (
{
hints = (
{
horizontal = 1;
place = (0, 21);
target = up;
type = BottomGhost;
},
{
horizontal = 1;
place = (300, 73);
place = (300, 73);
type = Stem;
},
{
horizontal = 1;
place = (637, 78);
place = (637, 78);
type = Stem;
},
{
place = (67, 90);
place = (67, 90);
type = Stem;
},
{
place = (494, 89);
place = (494, 89);
type = Stem;
}
);
layerId = m01;
shapes = (
{
closed = 1;
nodes = (
(67,0,l),
(157,0,l),
(157,300,l),
(352,300,ls),
(508,300,o),
(583,379,o),
(583,510,cs),
(583,635,o),
(494,715,o),
(365,715,cs),
(67,715,l)
);
},
{
closed = 1;
nodes = (
(350,637,ls),
(441,637,o),
(494,592,o),
(494,506,cs),
(494,424,o),
(446,373,o),
(345,373,cs),
(157,373,l),
(157,637,l)
);
}
);
width = 603;
}
);
note = P;
unicode = 80;
},
{
glyphname = Q;
kernLeft = C;
kernRight = Q;
lastChange = "2023-04-04 19:50:06 +0000";
layers = (
{
hints = (
{
horizontal = 1;
place = (-2, 21);
target = up;
type = BottomGhost;
},
{
horizontal = 1;
place = (653, 78);
place = (653, 78);
type = Stem;
},
{
place = (40, 92);
place = (40, 92);
type = Stem;
},
{
place = (648, 92);
place = (648, 92);
type = Stem;
},
{
horizontal = 1;
place = (-15, 79);
place = (-15, 79);
type = Stem;
}
);
layerId = m01;
shapes = (
{
closed = 1;
nodes = (
(174,731,o),
(40,572,o),
(40,358,cs),
(40,144,o),
(174,-15,o),
(390,-15,cs),
(457,-15,o),
(517,0,o),
(567,28,c),
(678,-60,l),
(724,-2,l),
(629,74,l),
(700,141,o),
(740,241,o),
(740,358,cs),
(740,572,o),
(606,731,o),
(390,731,cs)
);
},
{
closed = 1;
nodes = (
(558,653,o),
(648,526,o),
(648,358,cs),
(648,262,o),
(618,180,o),
(562,127,c),
(471,200,l),
(425,142,l),
(497,84,l),
(466,71,o),
(430,64,o),
(390,64,cs),
(222,64,o),
(132,190,o),
(132,358,cs),
(132,526,o),
(222,653,o),
(390,653,cs)
);
}
);
width = 780;
}
);
note = Q;
unicode = 81;
},
{
glyphname = R;
kernRight = R;
lastChange = "2023-04-04 19:50:10 +0000";
layers = (
{
hints = (
{
horizontal = 1;
place = (0, 21);
target = up;
type = BottomGhost;
},
{
horizontal = 1;
place = (302, 73);
place = (302, 73);
type = Stem;
},
{
horizontal = 1;
place = (637, 78);
place = (637, 78);
type = Stem;
},
{
place = (67, 90);
place = (67, 90);
type = Stem;
},
{
place = (519, 93);
place = (519, 93);
type = Stem;
}
);
layerId = m01;
shapes = (
{
closed = 1;
nodes = (
(67,0,l),
(157,0,l),
(157,302,l),
(356,302,ls),
(452,302,o),
(494,265,o),
(501,160,cs),
(503,137,o),
(504,118,o),
(505,101,cs),
(511,30,o),
(515,11,o),
(527,0,c),
(624,0,l),
(624,4,l),
(613,12,o),
(603,33,o),
(595,108,cs),
(594,122,o),
(592,139,o),
(591,157,cs),
(584,263,o),
(561,313,o),
(488,339,c),
(488,342,l),
(574,370,o),
(612,432,o),
(612,519,cs),
(612,636,o),
(527,715,o),
(401,715,cs),
(67,715,l)
);
},
{
closed = 1;
nodes = (
(374,637,ls),
(479,637,o),
(519,593,o),
(519,506,cs),
(519,425,o),
(469,375,o),
(369,375,cs),
(157,375,l),
(157,637,l)
);
}
);
width = 654;
}
);
note = R;
unicode = 82;
},
{
glyphname = S;
kernLeft = Scaron;
kernRight = Scaron;
lastChange = "2023-04-04 03:06:26 +0000";
layers = (
{
hints = (
{
horizontal = 1;
place = (-14, 72);
place = (-14, 72);
type = Stem;
},
{
horizontal = 1;
place = (659, 70);
place = (659, 70);
type = Stem;
},
{
place = (53, 84);
place = (53, 84);
type = Stem;
},
{
place = (501, 89);
place = (501, 89);
type = Stem;
}
);
layerId = m01;
shapes = (
{
closed = 1;
nodes = (
(549,638,o),
(475,729,o),
(296,729,cs),
(151,729,o),
(53,658,o),
(53,540,cs),
(53,405,o),
(161,369,o),
(287,341,cs),
(415,313,o),
(501,290,o),
(501,192,cs),
(501,103,o),
(430,58,o),
(331,58,cs),
(196,58,o),
(122,121,o),
(110,242,c),
(22,242,l),
(30,98,o),
(126,-14,o),
(327,-14,cs),
(481,-14,o),
(590,61,o),
(590,195,cs),
(590,356,o),
(463,390,o),
(324,418,cs),
(217,439,o),
(137,463,o),
(137,544,cs),
(137,618,o),
(201,659,o),
(298,659,cs),
(403,659,o),
(469,608,o),
(482,506,c),
(567,506,l)
);
}
);
width = 626;
}
);
note = S;
unicode = 83;
},
{
glyphname = T;
kernLeft = T;
kernRight = T;
layers = (
{
hints = (
{
horizontal = 1;
place = (0, 21);
target = up;
type = BottomGhost;
},
{
horizontal = 1;
place = (636, 79);
place = (636, 79);
type = Stem;
},
{
place = (260, 90);
place = (260, 90);
type = Stem;
}
);
layerId = m01;
shapes = (
{
closed = 1;
nodes = (
(22,636,l),
(260,636,l),
(260,0,l),
(350,0,l),
(350,636,l),
(588,636,l),
(588,715,l),
(22,715,l)
);
}
);
width = 610;
}
);
note = T;
unicode = 84;
},
{
glyphname = U;
kernLeft = U;
kernRight = U;
lastChange = "2023-04-04 03:09:08 +0000";
layers = (
{
hints = (
{
horizontal = 1;
place = (-11, 77);
place = (-11, 77);
type = Stem;
},
{
horizontal = 1;
place = (715, -20);
target = down;
type = TopGhost;
},
{
place = (55, 90);
place = (55, 90);
type = Stem;
},
{
place = (513, 90);
place = (513, 90);
type = Stem;
}
);
layerId = m01;
shapes = (
{
closed = 1;
nodes = (
(55,231,ls),
(55,58,o),
(173,-11,o),
(329,-11,cs),
(482,-11,o),
(603,58,o),
(603,231,cs),
(603,715,l),
(513,715,l),
(513,240,ls),
(513,118,o),
(445,66,o),
(332,66,cs),
(214,66,o),
(145,118,o),
(145,240,cs),
(145,715,l),
(55,715,l)
);
}
);
width = 658;
}
);
note = U;
unicode = 85;
},
{
glyphname = V;
kernLeft = V;
kernRight = V;
lastChange = "2023-04-04 03:09:11 +0000";
layers = (
{
hints = (
{
horizontal = 1;
place = (0, 21);
target = up;
type = BottomGhost;
},
{
horizontal = 1;
place = (715, -20);
target = down;
type = TopGhost;
},
{
place = (10, 599);
place = (10, 599);
type = Stem;
},
{
horizontal = 1;
place = (0, 87);
place = (0, 87);
type = Stem;
}
);
layerId = m01;
shapes = (
{
closed = 1;
nodes = (
(259,0,l),
(358,0,l),
(609,715,l),
(515,715,l),
(313,87,l),
(311,87,l),
(107,715,l),
(10,715,l)
);
}
);
width = 619;
}
);
note = V;
unicode = 86;
},
{
glyphname = W;
kernLeft = W;
kernRight = W;
lastChange = "2023-04-04 03:18:07 +0000";
layers = (
{
hints = (
{
horizontal = 1;
place = (0, 21);
target = up;
type = BottomGhost;
},
{
horizontal = 1;
place = (715, -20);
target = down;
type = TopGhost;
},
{
place = (14, 886);
place = (14, 886);
type = Stem;
},
{
horizontal = 1;
place = (613, 102);
place = (613, 102);
type = Stem;
},
{
horizontal = 1;
place = (0, 129);
place = (0, 129);
type = Stem;
}
);
layerId = m01;
shapes = (
{
closed = 1;
nodes = (
(199,0,l),
(289,0,l),
(456,613,l),
(458,613,l),
(615,0,l),
(701,0,l),
(900,715,l),
(809,715,l),
(662,129,l),
(660,129,l),
(506,715,l),
(409,715,l),
(250,129,l),
(248,129,l),
(108,715,l),
(14,715,l)
);
}
);
width = 914;
}
);
note = W;
unicode = 87;
},
{
glyphname = X;
kernLeft = X;
kernRight = X;
lastChange = "2023-04-04 04:43:31 +0000";
layers = (
{
hints = (
{
horizontal = 1;
place = (0, 21);
target = up;
type = BottomGhost;
},
{
horizontal = 1;
place = (715, -20);
target = down;
type = TopGhost;
},
{
place = (14, 588);
place = (14, 588);
type = Stem;
}
);
layerId = m01;
shapes = (
{
closed = 1;
nodes = (
(262,366,l),
(14,0,l),
(116,0,l),
(308,301,l),
(310,301,l),
(494,0,l),
(602,0,l),
(361,365,l),
(595,715,l),
(496,715,l),
(315,429,l),
(313,429,l),
(136,715,l),
(32,715,l)
);
}
);
width = 616;
}
);
note = X;
unicode = 88;
},
{
glyphname = Y;
kernLeft = Yacute;
kernRight = Yacute;
lastChange = "2023-04-04 04:45:48 +0000";
layers = (
{
hints = (
{
horizontal = 1;
place = (0, 21);
target = up;
type = BottomGhost;
},
{
horizontal = 1;
place = (715, -20);
target = down;
type = TopGhost;
},
{
place = (269, 90);
place = (269, 90);
type = Stem;
}
);
layerId = m01;
shapes = (
{
closed = 1;
nodes = (
(269,303,l),
(269,0,l),
(359,0,l),
(359,301,l),
(621,715,l),
(525,715,l),
(317,375,l),
(315,375,l),
(110,715,l),
(10,715,l)
);
}
);
width = 631;
}
);
note = Y;
unicode = 89;
},
{
glyphname = Z;
kernLeft = Zcaron;
kernRight = Zcaron;
lastChange = "2023-04-04 04:54:05 +0000";
layers = (
{
hints = (
{
horizontal = 1;
place = (0, 81);
place = (0, 81);
type = Stem;
},
{
horizontal = 1;
place = (639, 76);
place = (639, 76);
type = Stem;
},
{
place = (30, 105);
place = (30, 105);
type = Stem;
},
{
place = (458, 111);
place = (458, 111);
type = Stem;
}
);
layerId = m01;
shapes = (
{
closed = 1;
nodes = (
(55,639,l),
(458,639,l),
(458,636,l),
(30,86,l),
(30,0,l),
(586,0,l),
(586,81,l),
(135,81,l),
(135,84,l),
(569,645,l),
(569,715,l),
(55,715,l)
);
}
);
width = 622;
}
);
note = Z;
unicode = 90;
},
{
glyphname = a;
kernLeft = a;
kernRight = a;
lastChange = "2023-04-04 19:50:14 +0000";
layers = (
{
hints = (
{
horizontal = 1;
place = (-5, 21);
target = up;
type = BottomGhost;
},
{
horizontal = 1;
place = (466, 61);
place = (466, 61);
type = Stem;
},
{
place = (24, 86);
place = (24, 86);
type = Stem;
},
{
place = (374, 73);
place = (374, 73);
type = Stem;
},
{
horizontal = 1;
place = (-10, 62);
place = (-10, 62);
type = Stem;
}
);
layerId = m01;
shapes = (
{
closed = 1;
nodes = (
(128,352,l),
(131,430,o),
(173,466,o),
(257,466,cs),
(331,466,o),
(373,433,o),
(373,375,cs),
(373,319,o),
(322,312,o),
(249,301,cs),
(120,281,o),
(24,256,o),
(24,134,cs),
(24,36,o),
(101,-10,o),
(199,-10,cs),
(287,-10,o),
(340,32,o),
(371,72,c),
(372,72,l),
(373,68,o),
(373,65,o),
(374,61,cs),
(384,16,o),
(412,-5,o),
(461,-5,cs),
(482,-5,o),
(495,-1,o),
(505,3,c),
(505,62,l),
(502,62,l),
(495,60,o),
(489,60,o),
(483,60,cs),
(454,60,o),
(447,82,o),
(447,117,cs),
(447,363,ls),
(447,486,o),
(366,527,o),
(256,527,cs),
(119,527,o),
(53,452,o),
(50,352,c)
);
},
{
closed = 1;
nodes = (
(374,191,ls),
(374,131,o),
(325,52,o),
(217,52,cs),
(164,52,o),
(110,67,o),
(110,136,cs),
(110,212,o),
(175,226,o),
(256,241,cs),
(300,249,o),
(347,262,o),
(374,279,c)
);
}
);
width = 510;
}
);
note = a;
unicode = 97;
},
{
glyphname = b;
kernLeft = b;
kernRight = thorn;
lastChange = "2023-04-04 19:50:17 +0000";
layers = (
{
hints = (
{
horizontal = 1;
place = (-15, 68);
place = (-15, 68);
type = Stem;
},
{
horizontal = 1;
place = (460, 69);
place = (460, 69);
type = Stem;
},
{
horizontal = 1;
place = (715, -20);
target = down;
type = TopGhost;
},
{
place = (55, 81);
place = (55, 81);
type = Stem;
},
{
place = (441, 83);
place = (441, 83);
type = Stem;
},
{
horizontal = 1;
place = (0, 21);
target = up;
type = BottomGhost;
}
);
layerId = m01;
shapes = (
{
closed = 1;
nodes = (
(55,0,l),
(136,0,l),
(136,68,l),
(138,68,l),
(180,10,o),
(231,-15,o),
(301,-15,cs),
(441,-15,o),
(524,91,o),
(524,257,cs),
(524,429,o),
(435,529,o),
(304,529,cs),
(229,529,o),
(177,496,o),
(138,443,c),
(136,443,l),
(136,715,l),
(55,715,l)
);
},
{
closed = 1;
nodes = (
(394,460,o),
(441,372,o),
(441,256,cs),
(441,139,o),
(394,53,o),
(295,53,cs),
(185,53,o),
(131,140,o),
(131,256,cs),
(131,368,o),
(183,460,o),
(296,460,cs)
);
}
);
width = 550;
}
);
note = b;
unicode = 98;
},
{
glyphname = c;
kernLeft = c;
kernRight = c;
lastChange = "2023-04-04 05:10:46 +0000";
layers = (
{
hints = (
{
horizontal = 1;
place = (-14, 68);
place = (-14, 68);
type = Stem;
},
{
horizontal = 1;
place = (463, 67);
place = (463, 67);
type = Stem;
},
{
place = (26, 83);
place = (26, 83);
type = Stem;
}
);
layerId = m01;
shapes = (
{
closed = 1;
nodes = (
(479,460,o),
(398,530,o),
(276,530,cs),
(122,530,o),
(26,408,o),
(26,258,cs),
(26,108,o),
(122,-14,o),
(276,-14,cs),
(405,-14,o),
(486,58,o),
(497,182,c),
(417,182,l),
(410,102,o),
(360,54,o),
(276,54,cs),
(166,54,o),
(109,144,o),
(109,258,cs),
(109,372,o),
(166,463,o),
(276,463,cs),
(354,463,o),
(403,420,o),
(415,350,c),
(497,350,l)
);
}
);
width = 519;
}
);
note = c;
unicode = 99;
},
{
glyphname = d;
kernLeft = d;
kernRight = d;
lastChange = "2023-04-04 19:50:20 +0000";
layers = (
{
hints = (
{
horizontal = 1;
place = (-15, 68);
place = (-15, 68);
type = Stem;
},
{
horizontal = 1;
place = (460, 69);
place = (460, 69);
type = Stem;
},
{
horizontal = 1;
place = (715, -20);
target = down;
type = TopGhost;
},
{
place = (26, 83);
place = (26, 83);
type = Stem;
},
{
place = (417, 81);
place = (417, 81);
type = Stem;
},
{
horizontal = 1;
place = (0, 21);
target = up;
type = BottomGhost;
}
);
layerId = m01;
shapes = (
{
closed = 1;
nodes = (
(417,444,l),
(415,444,l),
(382,493,o),
(326,529,o),
(253,529,cs),
(125,529,o),
(26,429,o),
(26,257,cs),
(26,91,o),
(114,-15,o),
(255,-15,cs),
(328,-15,o),
(376,13,o),
(415,63,c),
(417,63,l),
(417,0,l),
(498,0,l),
(498,715,l),
(417,715,l)
);
},
{
closed = 1;
nodes = (
(364,460,o),
(422,376,o),
(422,256,cs),
(422,139,o),
(373,53,o),
(258,53,cs),
(159,53,o),
(109,139,o),
(109,256,cs),
(109,372,o),
(159,460,o),
(257,460,cs)
);
}
);
width = 553;
}
);
note = d;
unicode = 100;
},
{
glyphname = e;
kernLeft = c;
kernRight = e;
lastChange = "2023-04-04 19:50:21 +0000";
layers = (
{
hints = (
{
horizontal = 1;
place = (-14, 68);
place = (-14, 68);
type = Stem;
},
{
horizontal = 1;
place = (239, 61);
place = (239, 61);
type = Stem;
},
{
horizontal = 1;
place = (466, 64);
place = (466, 64);
type = Stem;
},
{
place = (26, 83);
place = (26, 83);
type = Stem;
},
{
place = (422, 87);
place = (422, 87);
type = Stem;
}
);
layerId = m01;
shapes = (
{
closed = 1;
nodes = (
(509,410,o),
(426,530,o),
(271,530,cs),
(124,530,o),
(26,408,o),
(26,258,cs),
(26,108,o),
(118,-14,o),
(276,-14,cs),
(393,-14,o),
(474,49,o),
(498,160,c),
(419,160,l),
(401,90,o),
(351,54,o),
(276,54,cs),
(172,54,o),
(115,134,o),
(109,239,c),
(509,239,l)
);
},
{
closed = 1;
nodes = (
(111,300,l),
(123,394,o),
(175,466,o),
(271,466,cs),
(364,466,o),
(417,403,o),
(422,300,c)
);
}
);
width = 533;
}
);
note = e;
unicode = 101;
},
{
glyphname = f;
kernLeft = f;
kernRight = f;
layers = (
{
hints = (
{
horizontal = 1;
place = (0, 21);
target = up;
type = BottomGhost;
},
{
horizontal = 1;
place = (451, 66);
place = (451, 66);
type = Stem;
},
{
horizontal = 1;
place = (651, 70);
place = (651, 70);
type = Stem;
},
{
place = (93, 81);
place = (93, 81);
type = Stem;
}
);
layerId = m01;
shapes = (
{
closed = 1;
nodes = (
(22,451,l),
(93,451,l),
(93,0,l),
(174,0,l),
(174,451,l),
(270,451,l),
(270,517,l),
(174,517,l),
(174,596,ls),
(174,638,o),
(193,651,o),
(245,651,cs),
(253,651,o),
(257,651,o),
(271,650,c),
(271,719,l),
(260,720,o),
(247,721,o),
(230,721,cs),
(144,721,o),
(93,689,o),
(93,600,cs),
(93,517,l),
(22,517,l)
);
}
);
width = 294;
}
);
note = f;
unicode = 102;
},
{
glyphname = g;
kernLeft = g;
kernRight = g;
lastChange = "2023-04-04 19:50:24 +0000";
layers = (
{
hints = (
{
horizontal = 1;
place = (-172, 64);
place = (-172, 64);
type = Stem;
},
{
horizontal = 1;
place = (18, 68);
place = (18, 68);
type = Stem;
},
{
horizontal = 1;
place = (461, 68);
place = (461, 68);
type = Stem;
},
{
place = (26, 83);
place = (26, 83);
type = Stem;
},
{
place = (407, 81);
place = (407, 81);
type = Stem;
},
{
horizontal = 1;
place = (461, 56);
place = (461, 56);
type = Stem;
}
);
layerId = m01;
shapes = (
{
closed = 1;
nodes = (
(407,451,l),
(405,451,l),
(370,500,o),
(322,529,o),
(247,529,cs),
(127,529,o),
(26,435,o),
(26,274,cs),
(26,125,o),
(118,18,o),
(252,18,cs),
(326,18,o),
(367,49,o),
(405,98,c),
(407,98,l),
(407,25,ls),
(407,-65,o),
(354,-108,o),
(259,-108,cs),
(179,-108,o),
(125,-86,o),
(117,-29,c),
(42,-29,l),
(51,-118,o),
(127,-172,o),
(261,-172,cs),
(398,-172,o),
(488,-108,o),
(488,28,cs),
(488,517,l),
(407,517,l)
);
},
{
closed = 1;
nodes = (
(365,461,o),
(413,391,o),
(413,278,cs),
(413,169,o),
(375,86,o),
(256,86,cs),
(160,86,o),
(109,160,o),
(109,273,cs),
(109,385,o),
(158,461,o),
(255,461,cs)
);
}
);
width = 543;
}
);
note = g;
unicode = 103;
},
{
glyphname = h;
kernLeft = b;
kernRight = h;
lastChange = "2023-04-04 05:35:46 +0000";
layers = (
{
hints = (
{
horizontal = 1;
place = (0, 21);
target = up;
type = BottomGhost;
},
{
horizontal = 1;
place = (461, 68);
place = (461, 68);
type = Stem;
},
{
horizontal = 1;
place = (715, -20);
target = down;
type = TopGhost;
},
{
place = (55, 81);
place = (55, 81);
type = Stem;
},
{
place = (395, 81);
place = (395, 81);
type = Stem;
}
);
layerId = m01;
shapes = (
{
closed = 1;
nodes = (
(55,0,l),
(136,0,l),
(136,318,ls),
(136,403,o),
(196,461,o),
(278,461,cs),
(351,461,o),
(395,423,o),
(395,356,cs),
(395,0,l),
(476,0,l),
(476,363,ls),
(476,470,o),
(410,529,o),
(302,529,cs),
(227,529,o),
(175,498,o),
(138,449,c),
(136,449,l),
(136,715,l),
(55,715,l)
);
}
);
width = 528;
}
);
note = h;
unicode = 104;
},
{
glyphname = i;
kernLeft = b;
kernRight = d;
layers = (
{
hints = (
{
horizontal = 1;
place = (0, 21);
target = up;
type = BottomGhost;
},
{
horizontal = 1;
place = (517, -20);
target = down;
type = TopGhost;
},
{
horizontal = 1;
place = (615, 100);
place = (615, 100);
type = Stem;
},
{
place = (55, 81);
place = (55, 81);
type = Stem;
}
);
layerId = m01;
shapes = (
{
closed = 1;
nodes = (
(55,0,l),
(136,0,l),
(136,517,l),
(55,517,l)
);
},
{
closed = 1;
nodes = (
(55,615,l),
(136,615,l),
(136,715,l),
(55,715,l)
);
}
);
width = 191;
}
);
note = i;
unicode = 105;
},
{
glyphname = j;
kernLeft = j;
kernRight = j;
lastChange = "2023-04-04 05:41:15 +0000";
layers = (
{
hints = (
{
horizontal = 1;
place = (-147, 67);
place = (-147, 67);
type = Stem;
},
{
horizontal = 1;
place = (517, -20);
target = down;
type = TopGhost;
},
{
horizontal = 1;
place = (615, 100);
place = (615, 100);
type = Stem;
},
{
place = (55, 81);
place = (55, 81);
type = Stem;
}
);
layerId = m01;
shapes = (
{
closed = 1;
nodes = (
(55,-30,ls),
(55,-65,o),
(37,-80,o),
(2,-80,cs),
(-7,-80,o),
(-16,-79,o),
(-28,-77,c),
(-28,-143,l),
(-15,-145,o),
(-1,-147,o),
(17,-147,cs),
(83,-147,o),
(136,-130,o),
(136,-34,cs),
(136,517,l),
(55,517,l)
);
},
{
closed = 1;
nodes = (
(55,615,l),
(136,615,l),
(136,715,l),
(55,715,l)
);
}
);
width = 191;
}
);
note = j;
unicode = 106;
},
{
glyphname = k;
kernLeft = b;
kernRight = k;
lastChange = "2023-04-04 05:44:16 +0000";
layers = (
{
hints = (
{
horizontal = 1;
place = (0, 21);
target = up;
type = BottomGhost;
},
{
horizontal = 1;
place = (517, -20);
target = down;
type = TopGhost;
},
{
horizontal = 1;
place = (715, -20);
target = down;
type = TopGhost;
},
{
place = (55, 81);
place = (55, 81);
type = Stem;
}
);
layerId = m01;
shapes = (
{
closed = 1;
nodes = (
(55,0,l),
(136,0,l),
(136,207,l),
(212,279,l),
(395,0,l),
(490,0,l),
(268,331,l),
(466,517,l),
(363,517,l),
(136,296,l),
(136,715,l),
(55,715,l)
);
}
);
width = 489;
}
);
note = k;
unicode = 107;
},
{
glyphname = l;
kernLeft = b;
kernRight = d;
layers = (
{
hints = (
{
horizontal = 1;
place = (0, 21);
target = up;
type = BottomGhost;
},
{
horizontal = 1;
place = (715, -20);
target = down;
type = TopGhost;
},
{
place = (58, 81);
place = (58, 81);
type = Stem;
}
);
layerId = m01;
shapes = (
{
closed = 1;
nodes = (
(58,0,l),
(139,0,l),
(139,715,l),
(58,715,l)
);
}
);
width = 197;
}
);
note = l;
unicode = 108;
},
{
glyphname = m;
kernLeft = m;
kernRight = h;
layers = (
{
hints = (
{
horizontal = 1;
place = (0, 21);
target = up;
type = BottomGhost;
},
{
horizontal = 1;
place = (461, 68);
place = (461, 68);
type = Stem;
},
{
place = (55, 81);
place = (55, 81);
type = Stem;
},
{
place = (358, 81);
place = (358, 81);
type = Stem;
},
{
place = (661, 81);
place = (661, 81);
type = Stem;
},
{
horizontal = 1;
place = (517, -20);
target = down;
type = TopGhost;
}
);
layerId = m01;
shapes = (
{
closed = 1;
nodes = (
(55,0,l),
(136,0,l),
(136,322,ls),
(136,403,o),
(206,461,o),
(269,461,cs),
(322,461,o),
(358,423,o),
(358,359,cs),
(358,0,l),
(439,0,l),
(439,322,ls),
(439,403,o),
(499,461,o),
(566,461,cs),
(618,461,o),
(661,423,o),
(661,359,cs),
(661,0,l),
(742,0,l),
(742,363,ls),
(742,470,o),
(677,529,o),
(585,529,cs),
(522,529,o),
(460,496,o),
(427,437,c),
(425,437,l),
(403,497,o),
(353,529,o),
(290,529,cs),
(225,529,o),
(170,493,o),
(138,443,c),
(136,443,l),
(136,517,l),
(55,517,l)
);
}
);
width = 794;
}
);
note = m;
unicode = 109;
},
{
glyphname = n;
kernLeft = m;
kernRight = h;
lastChange = "2023-04-04 05:50:19 +0000";
layers = (
{
hints = (
{
horizontal = 1;
place = (0, 21);
target = up;
type = BottomGhost;
},
{
horizontal = 1;
place = (517, -20);
target = down;
type = TopGhost;
},
{
place = (55, 81);
place = (55, 81);
type = Stem;
},
{
place = (395, 81);
place = (395, 81);
type = Stem;
},
{
horizontal = 1;
place = (461, 68);
place = (461, 68);
type = Stem;
}
);
layerId = m01;
shapes = (
{
closed = 1;
nodes = (
(55,0,l),
(136,0,l),
(136,318,ls),
(136,403,o),
(196,461,o),
(278,461,cs),
(351,461,o),
(395,423,o),
(395,356,cs),
(395,0,l),
(476,0,l),
(476,363,ls),
(476,470,o),
(410,529,o),
(302,529,cs),
(227,529,o),
(175,498,o),
(138,449,c),
(136,449,l),
(136,517,l),
(55,517,l)
);
}
);
width = 528;
}
);
note = n;
unicode = 110;
},
{
glyphname = o;
kernLeft = c;
kernRight = o;
lastChange = "2023-04-04 19:50:27 +0000";
layers = (
{
hints = (
{
horizontal = 1;
place = (-14, 68);
place = (-14, 68);
type = Stem;
},
{
horizontal = 1;
place = (463, 67);
place = (463, 67);
type = Stem;
},
{
place = (26, 83);
place = (26, 83);
type = Stem;
},
{
place = (442, 83);
place = (442, 83);
type = Stem;
}
);
layerId = m01;
shapes = (
{
closed = 1;
nodes = (
(122,530,o),
(26,408,o),
(26,258,cs),
(26,108,o),
(122,-14,o),
(276,-14,cs),
(431,-14,o),
(525,108,o),
(525,258,cs),
(525,408,o),
(431,530,o),
(276,530,cs)
);
},
{
closed = 1;
nodes = (
(386,463,o),
(442,372,o),
(442,258,cs),
(442,144,o),
(386,54,o),
(276,54,cs),
(166,54,o),
(109,144,o),
(109,258,cs),
(109,372,o),
(166,463,o),
(276,463,cs)
);
}
);
width = 551;
}
);
note = o;
unicode = 111;
},
{
glyphname = p;
kernLeft = p;
kernRight = thorn;
lastChange = "2023-04-04 19:50:31 +0000";
layers = (
{
hints = (
{
horizontal = 1;
place = (-166, 21);
target = up;
type = BottomGhost;
},
{
horizontal = 1;
place = (-15, 68);
place = (-15, 68);
type = Stem;
},
{
horizontal = 1;
place = (460, 69);
place = (460, 69);
type = Stem;
},
{
place = (55, 81);
place = (55, 81);
type = Stem;
},
{
place = (443, 83);
place = (443, 83);
type = Stem;
},
{
horizontal = 1;
place = (517, -20);
target = down;
type = TopGhost;
}
);
layerId = m01;
shapes = (
{
closed = 1;
nodes = (
(55,-166,l),
(136,-166,l),
(136,61,l),
(138,61,l),
(181,6,o),
(231,-15,o),
(301,-15,cs),
(441,-15,o),
(526,91,o),
(526,257,cs),
(526,429,o),
(435,529,o),
(304,529,cs),
(229,529,o),
(177,497,o),
(138,444,c),
(136,444,l),
(136,517,l),
(55,517,l)
);
},
{
closed = 1;
nodes = (
(394,460,o),
(443,372,o),
(443,256,cs),
(443,139,o),
(394,53,o),
(295,53,cs),
(176,53,o),
(131,144,o),
(131,256,cs),
(131,368,o),
(183,460,o),
(296,460,cs)
);
}
);
width = 552;
}
);
note = p;
unicode = 112;
},
{
glyphname = q;
kernLeft = d;
kernRight = q;
lastChange = "2023-04-04 19:50:33 +0000";
layers = (
{
hints = (
{
horizontal = 1;
place = (-166, 21);
target = up;
type = BottomGhost;
},
{
horizontal = 1;
place = (-15, 68);
place = (-15, 68);
type = Stem;
},
{
horizontal = 1;
place = (460, 69);
place = (460, 69);
type = Stem;
},
{
place = (29, 83);
place = (29, 83);
type = Stem;
},
{
place = (416, 81);
place = (416, 81);
type = Stem;
},
{
horizontal = 1;
place = (517, -20);
target = down;
type = TopGhost;
}
);
layerId = m01;
shapes = (
{
closed = 1;
nodes = (
(416,517,l),
(416,448,l),
(414,448,l),
(378,499,o),
(326,529,o),
(251,529,cs),
(125,529,o),
(29,429,o),
(29,257,cs),
(29,91,o),
(114,-15,o),
(254,-15,cs),
(328,-15,o),
(375,13,o),
(414,63,c),
(416,63,l),
(416,-166,l),
(497,-166,l),
(497,517,l)
);
},
{
closed = 1;
nodes = (
(370,460,o),
(421,376,o),
(421,256,cs),
(421,139,o),
(377,53,o),
(258,53,cs),
(159,53,o),
(112,139,o),
(112,256,cs),
(112,372,o),
(159,460,o),
(257,460,cs)
);
}
);
width = 552;
}
);
note = q;
unicode = 113;
},
{
glyphname = r;
kernLeft = m;
kernRight = r;
lastChange = "2023-04-04 20:05:39 +0000";
layers = (
{
hints = (
{
horizontal = 1;
place = (0, 21);
target = up;
type = BottomGhost;
},
{
horizontal = 1;
place = (517, -20);
target = down;
type = TopGhost;
},
{
place = (55, 81);
place = (55, 81);
type = Stem;
},
{
horizontal = 1;
place = (444, 79);
place = (444, 79);
type = Stem;
}
);
layerId = m01;
shapes = (
{
closed = 1;
nodes = (
(55,0,l),
(136,0,l),
(136,287,ls),
(136,384,o),
(206,444,o),
(286,444,cs),
(302,444,o),
(310,443,o),
(325,439,c),
(325,517,l),
(315,521,o),
(307,523,o),
(292,523,cs),
(223,523,o),
(169,481,o),
(138,431,c),
(136,431,l),
(136,517,l),
(55,517,l)
);
}
);
width = 343;
}
);
note = r;
unicode = 114;
},
{
glyphname = s;
kernLeft = scaron;
kernRight = scaron;
lastChange = "2023-04-04 06:04:45 +0000";
layers = (
{
hints = (
{
horizontal = 1;
place = (-15, 68);
place = (-15, 68);
type = Stem;
},
{
horizontal = 1;
place = (464, 64);
place = (464, 64);
type = Stem;
},
{
place = (45, 80);
place = (45, 80);
type = Stem;
},
{
place = (373, 82);
place = (373, 82);
type = Stem;
}
);
layerId = m01;
shapes = (
{
closed = 1;
nodes = (
(422,467,o),
(359,528,o),
(231,528,cs),
(111,528,o),
(45,472,o),
(45,386,cs),
(45,273,o),
(136,252,o),
(238,231,cs),
(333,211,o),
(373,196,o),
(373,138,cs),
(373,90,o),
(338,53,o),
(253,53,cs),
(176,53,o),
(116,78,o),
(105,168,c),
(22,168,l),
(30,52,o),
(109,-15,o),
(251,-15,cs),
(370,-15,o),
(455,38,o),
(455,142,cs),
(455,261,o),
(368,284,o),
(264,305,cs),
(175,323,o),
(125,334,o),
(125,390,cs),
(125,431,o),
(155,464,o),
(229,464,cs),
(306,464,o),
(343,434,o),
(351,366,c),
(434,366,l)
);
}
);
width = 478;
}
);
note = s;
unicode = 115;
},
{
glyphname = t;
kernLeft = t;
kernRight = t;
lastChange = "2023-04-04 20:06:43 +0000";
layers = (
{
hints = (
{
horizontal = 1;
place = (-3, 70);
place = (-3, 70);
type = Stem;
},
{
horizontal = 1;
place = (451, 66);
place = (451, 66);
type = Stem;
},
{
place = (97, 81);
place = (97, 81);
type = Stem;
}
);
layerId = m01;
shapes = (
{
closed = 1;
nodes = (
(22,451,l),
(97,451,l),
(97,97,ls),
(97,24,o),
(145,-3,o),
(211,-3,cs),
(235,-3,o),
(257,0,o),
(276,4,c),
(276,74,l),
(264,71,o),
(246,67,o),
(230,67,cs),
(197,67,o),
(178,79,o),
(178,115,cs),
(178,451,l),
(278,451,l),
(278,517,l),
(178,517,l),
(178,680,l),
(97,680,l),
(97,517,l),
(22,517,l)
);
}
);
width = 307;
}
);
note = t;
unicode = 116;
},
{
glyphname = u;
kernLeft = u;
kernRight = u;
lastChange = "2023-04-04 06:07:39 +0000";
layers = (
{
hints = (
{
horizontal = 1;
place = (0, 55);
place = (0, 55);
type = Stem;
},
{
horizontal = 1;
place = (517, -20);
target = down;
type = TopGhost;
},
{
place = (52, 81);
place = (52, 81);
type = Stem;
},
{
place = (384, 81);
place = (384, 81);
type = Stem;
},
{
horizontal = 1;
place = (-12, 67);
place = (-12, 67);
type = Stem;
}
);
layerId = m01;
shapes = (
{
closed = 1;
nodes = (
(52,159,ls),
(52,52,o),
(120,-12,o),
(226,-12,cs),
(301,-12,o),
(345,21,o),
(382,71,c),
(384,71,l),
(384,0,l),
(465,0,l),
(465,517,l),
(384,517,l),
(384,199,ls),
(384,117,o),
(331,55,o),
(249,55,cs),
(176,55,o),
(133,94,o),
(133,161,cs),
(133,517,l),
(52,517,l)
);
}
);
width = 520;
}
);
note = u;
unicode = 117;
},
{
glyphname = v;
kernLeft = v;
kernRight = v;
lastChange = "2023-04-04 06:09:30 +0000";
layers = (
{
hints = (
{
horizontal = 1;
place = (0, 21);
target = up;
type = BottomGhost;
},
{
horizontal = 1;
place = (517, -20);
target = down;
type = TopGhost;
},
{
place = (2, 457);
place = (2, 457);
type = Stem;
},
{
horizontal = 1;
place = (0, 80);
place = (0, 80);
type = Stem;
}
);
layerId = m01;
shapes = (
{
closed = 1;
nodes = (
(183,0,l),
(273,0,l),
(459,517,l),
(375,517,l),
(232,80,l),
(230,80,l),
(89,517,l),
(2,517,l)
);
}
);
width = 461;
}
);
note = v;
unicode = 118;
},
{
glyphname = w;
kernLeft = w;
kernRight = w;
lastChange = "2023-04-04 06:10:49 +0000";
layers = (
{
hints = (
{
horizontal = 1;
place = (0, 87);
place = (0, 87);
type = Stem;
},
{
horizontal = 1;
place = (517, -20);
target = down;
type = TopGhost;
},
{
place = (4, 726);
place = (4, 726);
type = Stem;
},
{
horizontal = 1;
place = (421, 96);
place = (421, 96);
type = Stem;
}
);
layerId = m01;
shapes = (
{
closed = 1;
nodes = (
(168,0,l),
(252,0,l),
(365,421,l),
(367,421,l),
(478,0,l),
(561,0,l),
(730,517,l),
(646,517,l),
(521,87,l),
(519,87,l),
(410,517,l),
(325,517,l),
(212,87,l),
(210,87,l),
(91,517,l),
(4,517,l)
);
}
);
width = 734;
}
);
note = w;
unicode = 119;
},
{
glyphname = x;
kernLeft = x;
kernRight = x;
lastChange = "2023-04-04 06:13:46 +0000";
layers = (
{
hints = (
{
horizontal = 1;
place = (0, 21);
target = up;
type = BottomGhost;
},
{
horizontal = 1;
place = (517, -20);
target = down;
type = TopGhost;
},
{
place = (6, 491);
place = (6, 491);
type = Stem;
}
);
layerId = m01;
shapes = (
{
closed = 1;
nodes = (
(201,271,l),
(6,0,l),
(97,0,l),
(247,222,l),
(249,222,l),
(402,0,l),
(497,0,l),
(295,280,l),
(465,517,l),
(376,517,l),
(248,329,l),
(246,329,l),
(123,517,l),
(29,517,l)
);
}
);
width = 503;
}
);
note = x;
unicode = 120;
},
{
glyphname = y;
kernLeft = yacute;
kernRight = yacute;
lastChange = "2023-04-04 06:16:57 +0000";
layers = (
{
hints = (
{
horizontal = 1;
place = (-171, 72);
place = (-171, 72);
type = Stem;
},
{
horizontal = 1;
place = (517, -20);
target = down;
type = TopGhost;
},
{
place = (2, 485);
place = (2, 485);
type = Stem;
},
{
horizontal = 1;
place = (-160, 21);
target = up;
type = BottomGhost;
}
);
layerId = m01;
shapes = (
{
closed = 1;
nodes = (
(204,15,l),
(197,-2,o),
(191,-19,o),
(184,-36,cs),
(164,-86,o),
(141,-99,o),
(107,-99,cs),
(80,-99,o),
(63,-94,o),
(48,-88,c),
(48,-160,l),
(70,-169,o),
(90,-171,o),
(121,-171,cs),
(184,-171,o),
(224,-149,o),
(266,-42,cs),
(487,517,l),
(401,517,l),
(249,94,l),
(247,94,l),
(90,517,l),
(2,517,l)
);
}
);
width = 489;
}
);
note = y;
unicode = 121;
},
